<?xml version="1.0" encoding="UTF-8"?>
<!DOCTYPE svg PUBLIC "-//W3C//DTD SVG 1.1//EN" "http://www.w3.org/Graphics/SVG/1.1/DTD/svg11.dtd">
<!-- Creator: CorelDRAW 2018 (64-Bit) -->
<svg xmlns="http://www.w3.org/2000/svg" xml:space="preserve" width="92.1024mm" height="85.2646mm" version="1.1" style="shape-rendering:geometricPrecision; text-rendering:geometricPrecision; image-rendering:optimizeQuality; fill-rule:evenodd; clip-rule:evenodd"
viewBox="0 0 9210.22 8526.44"
 xmlns:xlink="http://www.w3.org/1999/xlink">
 <defs>
  <style type="text/css">
   <![CDATA[
    .fil3 {fill:#00AAFF}
    .fil0 {fill:#04E061}
    .fil2 {fill:#965EEB}
    .fil1 {fill:#FF4053}
   ]]>
  </style>
 </defs>
 <g id="Слой_x0020_1">
  <metadata id="CorelCorpID_0Corel-Layer"/>
  <g id="_2521099808400">
   <path class="fil0" d="M2758.75 8526.44c1523.63,0 2758.75,-1235.12 2758.75,-2758.74 0,-1523.64 -1235.13,-2758.75 -2758.75,-2758.75 -1523.63,0 -2758.75,1235.12 -2758.75,2758.75 0,1523.63 1235.13,2758.74 2758.75,2758.74z"/>
   <path class="fil1" d="M7543.5 8178.76c920.49,0 1666.72,-746.23 1666.72,-1666.72 0,-920.48 -746.23,-1666.83 -1666.72,-1666.83 -920.48,0 -1666.83,746.23 -1666.83,1666.83 0,920.6 746.23,1666.72 1666.83,1666.72z"/>
   <path class="fil2" d="M3286.08 2651.06c569.75,0 1031.58,-461.83 1031.58,-1031.69 0,-569.75 -461.83,-1031.7 -1031.58,-1031.7 -569.75,0 -1031.69,461.83 -1031.69,1031.7 0,569.75 461.82,1031.69 1031.69,1031.69z"/>
   <path class="fil3" d="M6895.6 4485.82c1238.76,0 2242.91,-1004.16 2242.91,-2242.92 0,-1238.64 -1004.27,-2242.91 -2242.91,-2242.91 -1238.76,0 -2242.91,1004.16 -2242.91,2242.91 0,1238.76 1004.15,2242.92 2242.91,2242.92z"/>
  </g>
 </g>
</svg>
