<?xml version="1.0" encoding="UTF-8"?>
<!DOCTYPE svg PUBLIC "-//W3C//DTD SVG 1.1//EN" "http://www.w3.org/Graphics/SVG/1.1/DTD/svg11.dtd">
<!-- Creator: CorelDRAW 2018 (64-Bit) -->
<svg xmlns="http://www.w3.org/2000/svg" xml:space="preserve" width="30%" height="30%" version="1.1" style="shape-rendering:geometricPrecision; text-rendering:geometricPrecision; image-rendering:optimizeQuality; fill-rule:evenodd; clip-rule:evenodd"
viewBox="0 0 3809.61 2473.71"
 xmlns:xlink="http://www.w3.org/1999/xlink">
 <defs>
  <style type="text/css">
   <![CDATA[
    .fil0 {fill:url(#id0);fill-rule:nonzero}
   ]]>
  </style>
  <linearGradient id="id0" gradientUnits="userSpaceOnUse" x1="224.76" y1="1331.76" x2="3584.87" y2="976.1">
   <stop offset="0" style="stop-opacity:1; stop-color:#5F2B26"/>
   <stop offset="0.0745098" style="stop-opacity:1; stop-color:#7F4223"/>
   <stop offset="0.14902" style="stop-opacity:1; stop-color:#94532C"/>
   <stop offset="0.380392" style="stop-opacity:1; stop-color:#D09E56"/>
   <stop offset="0.560784" style="stop-opacity:1; stop-color:#FFF5E2"/>
   <stop offset="0.8" style="stop-opacity:1; stop-color:#DCBB95"/>
   <stop offset="0.960784" style="stop-opacity:1; stop-color:#A05A1F"/>
   <stop offset="1" style="stop-opacity:1; stop-color:#A05A1F"/>
  </linearGradient>
 </defs>
 <g id="Слой_x0020_1">
  <metadata id="CorelCorpID_0Corel-Layer"/>
  <path class="fil0" d="M2411.37 1918.56c115.59,0 222.05,-20.81 319.2,-62.45 97.13,-41.62 181.51,-98.21 253.27,-170 71.67,-71.68 128.39,-154.96 170,-249.82 41.64,-94.76 62.45,-195.35 62.45,-301.84l0 -388.57 555.16 0 0 388.57c0,189.74 -35.89,366.68 -107.57,530.83 -71.77,164.28 -170,306.52 -294.91,426.79 -124.89,120.29 -269.53,213.99 -433.68,281.01 -164.28,67.1 -338.94,100.63 -523.91,100.63l-2373.19 0 0 -555.16 2373.19 0zm-2411.37 -572.36c0,-189.59 35.79,-365.35 107.56,-527.34 71.68,-161.89 168.82,-304.15 291.46,-426.79 122.5,-122.5 267.16,-218.54 433.7,-287.92 166.53,-69.39 342.29,-104.14 527.36,-104.14l2449.54 0 0 562.09 -2449.54 0c-111.01,0 -215.11,20.81 -312.26,62.45 -97.13,41.61 -182.78,97.19 -256.73,166.56 -74.06,69.38 -131.84,151.55 -173.48,246.33 -41.64,94.89 -62.47,197.76 -62.47,308.77l0 353.9 -555.14 0 0 -353.9z"/>
 </g>
</svg>
