<?xml version="1.0" encoding="UTF-8"?>
<!DOCTYPE svg PUBLIC "-//W3C//DTD SVG 1.1//EN" "http://www.w3.org/Graphics/SVG/1.1/DTD/svg11.dtd">
<!-- Creator: CorelDRAW 2018 (64-Bit) -->
<svg xmlns="http://www.w3.org/2000/svg" xml:space="preserve" width="30%" height="30%" version="1.1" style="shape-rendering:geometricPrecision; text-rendering:geometricPrecision; image-rendering:optimizeQuality; fill-rule:evenodd; clip-rule:evenodd"
viewBox="0 0 7500 7027.49"
 xmlns:xlink="http://www.w3.org/1999/xlink">
 <defs>
  <style type="text/css">
   <![CDATA[
    .fil0 {fill:#FEFEFE;fill-rule:nonzero}
    .fil1 {fill:url(#id0);fill-rule:nonzero}
   ]]>
  </style>
  <linearGradient id="id0" gradientUnits="userSpaceOnUse" x1="2281.42" y1="1331.76" x2="5641.53" y2="976.1">
   <stop offset="0" style="stop-opacity:1; stop-color:#5F2B26"/>
   <stop offset="0.0745098" style="stop-opacity:1; stop-color:#7F4223"/>
   <stop offset="0.14902" style="stop-opacity:1; stop-color:#94532C"/>
   <stop offset="0.380392" style="stop-opacity:1; stop-color:#D09E56"/>
   <stop offset="0.560784" style="stop-opacity:1; stop-color:#FFF5E2"/>
   <stop offset="0.8" style="stop-opacity:1; stop-color:#DCBB95"/>
   <stop offset="0.960784" style="stop-opacity:1; stop-color:#A05A1F"/>
   <stop offset="1" style="stop-opacity:1; stop-color:#A05A1F"/>
  </linearGradient>
 </defs>
 <g id="Слой_x0020_1">
  <metadata id="CorelCorpID_0Corel-Layer"/>
  <path class="fil0" d="M423.34 5840.04c-131.73,-57.64 -235.22,-139.33 -310.43,-245.18 -75.3,-105.85 -112.91,-229.31 -112.91,-370.43l430.39 0c9.38,105.83 51.15,192.89 125.25,261.04 74.08,68.25 178.13,102.34 312.2,102.34 138.75,0 246.93,-33.52 324.54,-100.54 77.61,-67.05 116.44,-153.48 116.44,-259.29 0,-82.32 -24.16,-149.34 -72.33,-201.09 -48.23,-51.69 -108.2,-91.73 -179.91,-119.96 -71.79,-28.22 -171.11,-58.76 -298.11,-91.72 -159.98,-42.33 -289.88,-85.21 -389.8,-128.76 -100.01,-43.47 -185.23,-111.12 -255.77,-202.84 -70.56,-91.74 -105.85,-213.99 -105.85,-366.91 0,-141.1 35.29,-264.57 105.85,-370.4 70.54,-105.83 169.34,-186.97 296.33,-243.41 126.99,-56.44 273.94,-84.69 440.96,-84.69 237.53,0 432.17,59.44 583.85,178.18 151.69,118.77 235.76,281.66 252.23,488.57l-444.5 0c-7.05,-89.35 -49.4,-165.8 -127.01,-229.28 -77.59,-63.49 -179.9,-95.26 -306.9,-95.26 -115.28,0 -209.37,29.44 -282.22,88.21 -72.93,58.8 -109.37,143.45 -109.37,253.98 0,75.31 22.93,137.04 68.79,185.21 45.86,48.26 104.06,86.44 174.62,114.66 70.56,28.23 166.96,58.8 289.28,91.72 162.28,44.72 294.57,89.41 396.87,134.06 102.31,44.7 189.29,113.49 261.05,206.38 71.73,92.93 107.6,216.95 107.6,372.17 0,124.7 -33.5,242.27 -100.55,352.78 -67.02,110.57 -164.63,199.32 -292.79,266.34 -128.22,67.02 -279.3,100.54 -453.32,100.54 -164.65,0 -312.83,-28.75 -444.5,-86.41z"/>
  <path class="fil0" d="M3965.19 4155.52c-63.51,-122.27 -151.7,-214.59 -264.58,-276.93 -112.9,-62.28 -243.43,-93.51 -391.58,-93.51 -162.28,0 -306.94,36.5 -433.93,109.37 -126.99,72.93 -226.39,176.41 -298.08,310.46 -71.78,134.07 -107.61,289.28 -107.61,465.68 0,176.37 35.83,332.22 107.61,467.43 71.69,135.26 171.09,239.34 298.08,312.21 126.99,72.91 271.65,109.37 433.93,109.37 218.73,0 396.27,-61.15 532.68,-183.47 136.37,-122.27 219.88,-288.08 250.49,-497.41l-920.76 0 0 -321.03 1351.13 0 0 313.97c-25.91,190.5 -93.5,365.74 -202.84,525.65 -109.37,159.95 -251.69,287.5 -426.88,382.76 -175.22,95.22 -369.84,142.85 -583.83,142.85 -230.51,0 -440.99,-53.48 -631.48,-160.49 -190.5,-106.98 -341.65,-255.78 -453.32,-446.29 -111.72,-190.48 -167.57,-405.68 -167.57,-645.55 0,-239.9 55.85,-455.09 167.57,-645.59 111.68,-190.5 263.39,-339.21 455.09,-446.27 191.66,-106.97 401.55,-160.53 629.71,-160.53 261.06,0 493.28,64.11 696.73,192.29 203.4,128.22 351.01,309.9 442.74,545.05l-483.31 0z"/>
  <path class="fil0" d="M7500 3449.98l0 2451.78 -402.18 0 0 -1679.23 -747.88 1679.23 -278.7 0 -751.4 -1679.23 0 1679.23 -402.18 0 0 -2451.78 433.91 0 860.78 1922.62 857.25 -1922.62 430.4 0z"/>
  <path class="fil0" d="M1097.78 6616.78l186.7 400.6 -43 0 -62.92 -131.84 -172.63 0 -62.6 131.84 -44.74 0 189.39 -400.6 9.8 0zm-4.9 85.05l-68.93 145.13 136.91 0 -67.98 -145.13zm494.96 -85.05l40 0 0 241.88c0,28.61 0.48,46.48 1.58,53.59 2.06,15.81 6.64,28.93 13.91,39.52 7.27,10.59 18.5,19.61 33.52,26.72 15.02,7.27 30.19,10.91 45.53,10.91 13.28,0 25.92,-2.84 38.1,-8.54 12.17,-5.53 22.29,-13.44 30.51,-23.4 8.06,-9.96 14.07,-22.13 18.02,-36.2 2.69,-10.28 3.95,-31.14 3.95,-62.6l0 -241.88 40.16 0 0 241.88c0,35.73 -3.47,64.66 -10.43,86.63 -7.11,22.13 -21.02,41.42 -42.05,57.7 -21.03,16.28 -46.32,24.5 -76.04,24.5 -32.41,0 -60.08,-7.74 -83,-23.24 -23.08,-15.33 -38.57,-35.73 -46.48,-61.18 -4.9,-15.65 -7.27,-43.79 -7.27,-84.42l0 -241.88zm563.89 38.9l0 -38.9 219.74 0 0 38.9 -89.32 0 0 361.7 -40.78 0 0 -361.7 -89.64 0zm707.91 -49.01c60.55,0 111.29,20.24 152.24,60.71 40.79,40.63 61.18,90.43 61.18,149.55 0,58.65 -20.39,108.45 -61.02,149.24 -40.79,40.94 -90.43,61.34 -149.07,61.34 -59.45,0 -109.56,-20.39 -150.35,-61.02 -40.94,-40.63 -61.34,-89.96 -61.34,-147.65 0,-38.42 9.32,-74.15 27.98,-107.03 18.5,-32.72 43.95,-58.49 76.04,-77.15 32.09,-18.65 66.87,-27.98 104.34,-27.98zm1.9 39.21c-29.56,0 -57.71,7.74 -84.11,23.08 -26.56,15.5 -47.27,36.36 -62.13,62.45 -14.87,26.09 -22.29,55.34 -22.29,87.43 0,47.58 16.44,87.74 49.48,120.46 32.88,32.72 72.56,49.16 119.04,49.16 30.98,0 59.75,-7.59 86.16,-22.61 26.4,-15.02 47.11,-35.73 61.81,-61.81 14.7,-26.09 22.13,-55.17 22.13,-87.11 0,-31.77 -7.43,-60.39 -22.13,-86.16 -14.7,-25.77 -35.57,-46.32 -62.44,-61.82 -26.88,-15.34 -55.33,-23.08 -85.52,-23.08zm1312.42 38.26l-31.14 29.4c-22.29,-21.97 -46.79,-38.73 -73.35,-50.11 -26.56,-11.22 -52.49,-16.92 -77.78,-16.92 -31.46,0 -61.34,7.75 -89.63,23.08 -28.46,15.5 -50.43,36.36 -66.08,62.76 -15.65,26.4 -23.39,54.38 -23.39,83.79 0,30.19 8.06,58.81 24.18,85.84 16.13,27.19 38.42,48.54 67.03,64.03 28.46,15.65 59.6,23.4 93.59,23.4 41.27,0 76.04,-11.7 104.65,-34.94 28.46,-23.24 45.37,-53.28 50.59,-90.43l-127.73 0 0 -38.57 172.63 0c-0.32,61.82 -18.66,110.98 -55.01,147.34 -36.52,36.52 -85.22,54.69 -146.08,54.69 -74.14,0 -132.79,-25.29 -175.95,-75.72 -33.2,-38.89 -49.8,-83.78 -49.8,-134.85 0,-37.94 9.49,-73.19 28.61,-105.92 18.97,-32.73 45.06,-58.18 78.41,-76.67 33.2,-18.5 70.82,-27.67 112.72,-27.67 33.98,0 65.92,6.17 95.8,18.34 29.88,12.33 59.13,32.09 87.74,59.12zm341.77 -67.35l79.84 0c44.42,0 74.62,1.9 90.43,5.54 23.71,5.37 43,17.07 58.02,34.94 14.86,17.86 22.29,40 22.29,66.08 0,21.66 -5.06,40.79 -15.34,57.38 -10.28,16.6 -24.98,29.09 -44.11,37.47 -19.13,8.38 -45.37,12.8 -78.88,12.96l144.01 186.23 -49.48 0 -143.85 -186.23 -22.93 0 0 186.23 -40 0 0 -400.6zm40 39.21l0 136.12 68.93 0.63c26.71,0 46.48,-2.53 59.28,-7.74 12.8,-5.06 22.76,-13.13 29.87,-24.35 7.11,-11.06 10.76,-23.55 10.76,-37.31 0,-13.44 -3.64,-25.77 -10.76,-36.68 -7.27,-10.91 -16.76,-18.81 -28.61,-23.56 -11.86,-4.74 -31.46,-7.11 -58.97,-7.11l-70.51 0zm727.03 -49.32c60.55,0 111.3,20.24 152.24,60.71 40.79,40.63 61.18,90.43 61.18,149.55 0,58.65 -20.4,108.45 -61.02,149.24 -40.79,40.94 -90.43,61.34 -149.08,61.34 -59.44,0 -109.55,-20.39 -150.34,-61.02 -40.95,-40.63 -61.34,-89.96 -61.34,-147.65 0,-38.42 9.32,-74.15 27.98,-107.03 18.5,-32.72 43.95,-58.49 76.04,-77.15 32.09,-18.65 66.87,-27.98 104.33,-27.98zm1.9 39.21c-29.56,0 -57.7,7.74 -84.1,23.08 -26.56,15.5 -47.27,36.36 -62.13,62.45 -14.87,26.09 -22.29,55.34 -22.29,87.43 0,47.58 16.44,87.74 49.48,120.46 32.88,32.72 72.56,49.16 119.04,49.16 30.98,0 59.76,-7.59 86.16,-22.61 26.4,-15.02 47.11,-35.73 61.81,-61.81 14.71,-26.09 22.14,-55.17 22.14,-87.11 0,-31.77 -7.43,-60.39 -22.14,-86.16 -14.7,-25.77 -35.57,-46.32 -62.44,-61.82 -26.88,-15.34 -55.33,-23.08 -85.53,-23.08zm533.06 -29.09l40 0 0 241.88c0,28.61 0.48,46.48 1.58,53.59 2.06,15.81 6.64,28.93 13.91,39.52 7.27,10.59 18.5,19.61 33.51,26.72 15.02,7.27 30.2,10.91 45.53,10.91 13.28,0 25.92,-2.84 38.1,-8.54 12.17,-5.53 22.29,-13.44 30.51,-23.4 8.06,-9.96 14.07,-22.13 18.02,-36.2 2.69,-10.28 3.95,-31.14 3.95,-62.6l0 -241.88 40.16 0 0 241.88c0,35.73 -3.47,64.66 -10.43,86.63 -7.12,22.13 -21.02,41.42 -42.05,57.7 -21.03,16.28 -46.32,24.5 -76.04,24.5 -32.41,0 -60.08,-7.74 -83,-23.24 -23.08,-15.33 -38.57,-35.73 -46.48,-61.18 -4.9,-15.65 -7.27,-43.79 -7.27,-84.42l0 -241.88zm603.41 0l79.68 0c45.68,0 76.67,2.06 92.64,6.01 22.92,5.54 41.57,17.08 56.12,34.63 14.55,17.55 21.82,39.68 21.82,66.08 0,26.71 -7.11,48.85 -21.19,66.08 -14.23,17.39 -33.83,29.09 -58.65,34.94 -18.18,4.43 -52.01,6.64 -101.81,6.64l-28.61 0 0 186.23 -40 0 0 -400.6zm40 38.9l0 136.27 67.82 0.79c27.35,0 47.43,-2.53 60.23,-7.58 12.65,-4.9 22.61,-12.97 29.88,-24.19 7.27,-11.23 10.91,-23.71 10.91,-37.47 0,-13.44 -3.64,-25.61 -10.91,-36.83 -7.27,-11.23 -16.91,-19.13 -28.77,-23.87 -11.86,-4.74 -31.3,-7.11 -58.33,-7.11l-70.83 0z"/>
  <path class="fil1" d="M4468.03 1918.56c115.59,0 222.05,-20.81 319.2,-62.45 97.13,-41.62 181.51,-98.21 253.27,-170 71.67,-71.68 128.39,-154.96 170,-249.82 41.64,-94.76 62.45,-195.35 62.45,-301.84l0 -388.57 555.16 0 0 388.57c0,189.74 -35.89,366.68 -107.57,530.83 -71.77,164.28 -170,306.52 -294.91,426.79 -124.89,120.29 -269.53,213.99 -433.68,281.01 -164.28,67.1 -338.94,100.63 -523.91,100.63l-2373.19 0 0 -555.16 2373.19 0zm-2411.37 -572.36c0,-189.59 35.79,-365.35 107.56,-527.34 71.68,-161.89 168.82,-304.15 291.46,-426.79 122.5,-122.5 267.16,-218.54 433.7,-287.92 166.53,-69.39 342.29,-104.14 527.36,-104.14l2449.54 0 0 562.09 -2449.54 0c-111.01,0 -215.11,20.81 -312.26,62.45 -97.13,41.61 -182.78,97.19 -256.73,166.56 -74.06,69.38 -131.84,151.55 -173.48,246.33 -41.64,94.89 -62.47,197.76 -62.47,308.77l0 353.9 -555.14 0 0 -353.9z"/>
 </g>
</svg>
